<svg xmlns="http://www.w3.org/2000/svg" xmlns:xlink="http://www.w3.org/1999/xlink" width="1920" zoomAndPan="magnify" viewBox="0 0 1440 809.999993" height="1080" preserveAspectRatio="xMidYMid meet" version="1.0"><defs><clipPath id="4f3215d5c3"><path d="M 440.675781 403.5 L 994.832031 403.5 L 994.832031 484.429688 L 440.675781 484.429688 Z M 440.675781 403.5 " clip-rule="nonzero"/></clipPath><clipPath id="db2cc727e0"><path d="M 0.675781 0.5 L 554.832031 0.5 L 554.832031 81.429688 L 0.675781 81.429688 Z M 0.675781 0.5 " clip-rule="nonzero"/></clipPath><clipPath id="759730ba32"><rect x="0" width="555" y="0" height="82"/></clipPath></defs><path fill="#f53d01" d="M 581.9375 332.4375 C 574.691406 324.085938 560.230469 324.191406 552.019531 330.78125 C 549.433594 332.855469 547.089844 335.191406 544.300781 337.039062 C 540.65625 339.460938 536.941406 340.84375 533.25 341.199219 C 529.558594 340.84375 525.839844 339.460938 522.195312 337.039062 C 519.40625 335.191406 517.0625 332.855469 514.476562 330.78125 C 506.265625 324.195312 491.804688 324.085938 484.558594 332.4375 C 483.066406 334.160156 481.105469 335.457031 479.199219 336.765625 C 473.730469 340.519531 468.0625 340.863281 462.175781 337.671875 C 459.527344 336.230469 457.199219 334.359375 454.871094 332.519531 C 450.640625 329.179688 446.007812 327.195312 440.328125 327.496094 C 432.410156 327.917969 425.796875 330.6875 422.105469 337.550781 C 418.21875 344.769531 418.050781 352.300781 422.878906 359.40625 C 424.636719 362.003906 426.652344 364.445312 428.566406 366.933594 C 432.695312 372.320312 434.378906 381.273438 427.585938 387.988281 C 424.789062 390.75 422.640625 394.03125 421.546875 397.792969 C 419.171875 405.988281 419.632812 413.613281 426.398438 420.007812 C 427.964844 421.484375 429.375 423.125 430.730469 424.785156 C 435.726562 430.890625 435.679688 437.402344 430.625 443.457031 C 429.417969 444.898438 428.050781 446.214844 426.871094 447.671875 C 423.429688 451.917969 420.082031 456.332031 419.640625 461.886719 C 418.976562 470.207031 423.003906 476.519531 430.117188 480.796875 C 437.484375 485.222656 445.210938 485.207031 452.757812 480.835938 C 455.894531 479.015625 458.558594 476.613281 461.230469 474.230469 C 466.949219 469.136719 473.523438 468.699219 479.734375 473.207031 C 482.417969 475.152344 484.808594 477.460938 487.402344 479.523438 C 495.0625 485.613281 506.128906 485.902344 514.121094 480.214844 C 516.878906 478.25 519.453125 476.046875 522.167969 474.023438 C 525.691406 471.402344 529.472656 469.972656 533.25 469.714844 C 537.019531 469.972656 540.804688 471.402344 544.328125 474.023438 C 547.042969 476.046875 549.617188 478.25 552.375 480.214844 C 560.367188 485.902344 571.433594 485.613281 579.09375 479.527344 C 581.691406 477.464844 584.082031 475.15625 586.761719 473.210938 C 592.972656 468.699219 599.546875 469.136719 605.265625 474.234375 C 607.9375 476.617188 610.601562 479.019531 613.742188 480.839844 C 621.285156 485.210938 629.011719 485.230469 636.378906 480.800781 C 643.492188 476.527344 647.519531 470.210938 646.859375 461.890625 C 646.417969 456.328125 643.066406 451.925781 639.625 447.675781 C 638.445312 446.214844 637.078125 444.898438 635.875 443.460938 C 630.820312 437.410156 630.769531 430.894531 635.765625 424.789062 C 637.125 423.128906 638.535156 421.488281 640.097656 420.011719 C 646.867188 413.625 647.328125 405.992188 644.949219 397.808594 C 643.855469 394.042969 641.707031 390.761719 638.914062 388.003906 C 632.121094 381.289062 633.800781 372.332031 637.929688 366.949219 C 639.84375 364.449219 641.863281 362.011719 643.625 359.414062 C 648.441406 352.308594 648.277344 344.78125 644.394531 337.558594 C 640.699219 330.695312 634.089844 327.925781 626.167969 327.503906 C 620.488281 327.203125 615.859375 329.1875 611.625 332.527344 C 609.28125 334.367188 606.972656 336.238281 604.320312 337.679688 C 598.4375 340.875 592.761719 340.527344 587.296875 336.773438 C 585.390625 335.457031 583.429688 334.15625 581.9375 332.4375 Z M 581.9375 332.4375 " fill-opacity="1" fill-rule="nonzero"/><path fill="#f53d01" d="M 768.238281 332.4375 C 760.992188 324.085938 746.53125 324.191406 738.320312 330.78125 C 735.734375 332.855469 733.390625 335.191406 730.601562 337.039062 C 726.957031 339.460938 723.242188 340.84375 719.550781 341.199219 C 715.859375 340.84375 712.140625 339.460938 708.496094 337.039062 C 705.707031 335.191406 703.363281 332.855469 700.78125 330.78125 C 692.570312 324.195312 678.109375 324.085938 670.859375 332.4375 C 669.367188 334.160156 667.40625 335.457031 665.503906 336.765625 C 660.03125 340.519531 654.363281 340.863281 648.476562 337.671875 C 645.828125 336.230469 643.503906 334.359375 641.175781 332.519531 C 636.941406 329.179688 632.3125 327.195312 626.628906 327.496094 C 618.710938 327.917969 612.097656 330.6875 608.40625 337.550781 C 604.523438 344.769531 604.351562 352.300781 609.179688 359.40625 C 610.9375 362.003906 612.953125 364.445312 614.867188 366.933594 C 618.996094 372.320312 620.679688 381.273438 613.886719 387.988281 C 611.089844 390.75 608.941406 394.03125 607.847656 397.792969 C 605.472656 405.988281 605.933594 413.613281 612.699219 420.007812 C 614.265625 421.484375 615.675781 423.125 617.03125 424.785156 C 622.027344 430.890625 621.980469 437.402344 616.925781 443.457031 C 615.71875 444.898438 614.351562 446.214844 613.171875 447.671875 C 609.730469 451.917969 606.382812 456.332031 605.941406 461.886719 C 605.277344 470.207031 609.308594 476.519531 616.421875 480.796875 C 623.785156 485.222656 631.511719 485.207031 639.058594 480.835938 C 642.195312 479.015625 644.859375 476.613281 647.53125 474.230469 C 653.25 469.136719 659.824219 468.699219 666.035156 473.207031 C 668.71875 475.152344 671.109375 477.460938 673.703125 479.523438 C 681.363281 485.613281 692.429688 485.902344 700.421875 480.214844 C 703.179688 478.25 705.753906 476.046875 708.472656 474.023438 C 711.992188 471.402344 715.773438 469.972656 719.550781 469.714844 C 723.324219 469.972656 727.105469 471.402344 730.628906 474.023438 C 733.34375 476.046875 735.917969 478.25 738.675781 480.214844 C 746.671875 485.902344 757.734375 485.613281 765.398438 479.527344 C 767.992188 477.464844 770.382812 475.15625 773.0625 473.210938 C 779.273438 468.699219 785.847656 469.136719 791.566406 474.234375 C 794.238281 476.617188 796.902344 479.019531 800.042969 480.839844 C 807.585938 485.210938 815.316406 485.230469 822.679688 480.800781 C 829.792969 476.527344 833.820312 470.210938 833.160156 461.890625 C 832.71875 456.328125 829.367188 451.925781 825.925781 447.675781 C 824.746094 446.214844 823.378906 444.898438 822.175781 443.460938 C 817.121094 437.410156 817.074219 430.894531 822.066406 424.789062 C 823.425781 423.128906 824.835938 421.488281 826.398438 420.011719 C 833.167969 413.625 833.628906 405.992188 831.25 397.808594 C 830.15625 394.042969 828.007812 390.761719 825.214844 388.003906 C 818.421875 381.289062 820.101562 372.332031 824.230469 366.949219 C 826.148438 364.449219 828.164062 362.011719 829.925781 359.414062 C 834.742188 352.308594 834.578125 344.78125 830.695312 337.558594 C 827 330.695312 820.390625 327.925781 812.46875 327.503906 C 806.789062 327.203125 802.160156 329.1875 797.925781 332.527344 C 795.585938 334.367188 793.273438 336.238281 790.621094 337.679688 C 784.738281 340.875 779.0625 340.527344 773.597656 336.773438 C 771.695312 335.457031 769.734375 334.15625 768.238281 332.4375 Z M 768.238281 332.4375 " fill-opacity="1" fill-rule="nonzero"/><path fill="#f53d01" d="M 954.167969 332.4375 C 946.921875 324.085938 932.460938 324.191406 924.25 330.78125 C 921.667969 332.855469 919.320312 335.191406 916.535156 337.039062 C 912.886719 339.460938 909.171875 340.84375 905.480469 341.199219 C 901.789062 340.84375 898.074219 339.460938 894.429688 337.039062 C 891.640625 335.191406 889.292969 332.855469 886.710938 330.78125 C 878.5 324.195312 864.039062 324.085938 856.792969 332.4375 C 855.296875 334.160156 853.335938 335.457031 851.433594 336.765625 C 845.960938 340.519531 840.292969 340.863281 834.410156 337.671875 C 831.757812 336.230469 829.433594 334.359375 827.105469 332.519531 C 822.871094 329.179688 818.242188 327.195312 812.5625 327.496094 C 804.640625 327.917969 798.03125 330.6875 794.335938 337.550781 C 790.453125 344.769531 790.28125 352.300781 795.113281 359.40625 C 796.867188 362.003906 798.882812 364.445312 800.800781 366.933594 C 804.929688 372.320312 806.609375 381.273438 799.816406 387.988281 C 797.019531 390.75 794.875 394.03125 793.78125 397.792969 C 791.402344 405.988281 791.863281 413.613281 798.632812 420.007812 C 800.195312 421.484375 801.605469 423.125 802.964844 424.785156 C 807.957031 430.890625 807.910156 437.402344 802.855469 443.457031 C 801.652344 444.898438 800.285156 446.214844 799.105469 447.671875 C 795.660156 451.917969 792.316406 456.332031 791.871094 461.886719 C 791.207031 470.207031 795.238281 476.519531 802.351562 480.796875 C 809.714844 485.222656 817.445312 485.207031 824.988281 480.835938 C 828.128906 479.015625 830.792969 476.613281 833.464844 474.230469 C 839.183594 469.136719 845.753906 468.699219 851.96875 473.207031 C 854.648438 475.152344 857.039062 477.460938 859.632812 479.523438 C 867.296875 485.613281 878.359375 485.902344 886.351562 480.214844 C 889.113281 478.25 891.683594 476.046875 894.402344 474.023438 C 897.925781 471.402344 901.707031 469.972656 905.480469 469.714844 C 909.253906 469.972656 913.039062 471.402344 916.558594 474.023438 C 919.277344 476.046875 921.851562 478.25 924.609375 480.214844 C 932.601562 485.902344 943.664062 485.613281 951.328125 479.527344 C 953.921875 477.464844 956.3125 475.15625 958.992188 473.210938 C 965.203125 468.699219 971.78125 469.136719 977.5 474.234375 C 980.171875 476.617188 982.832031 479.019531 985.972656 480.839844 C 993.519531 485.210938 1001.246094 485.230469 1008.609375 480.800781 C 1015.722656 476.527344 1019.753906 470.210938 1019.089844 461.890625 C 1018.652344 456.328125 1015.300781 451.925781 1011.859375 447.675781 C 1010.679688 446.214844 1009.308594 444.898438 1008.105469 443.460938 C 1003.050781 437.410156 1003.003906 430.894531 1007.996094 424.789062 C 1009.355469 423.128906 1010.765625 421.488281 1012.332031 420.011719 C 1019.097656 413.625 1019.558594 405.992188 1017.183594 397.808594 C 1016.089844 394.042969 1013.941406 390.761719 1011.144531 388.003906 C 1004.351562 381.289062 1006.035156 372.332031 1010.160156 366.949219 C 1012.078125 364.449219 1014.09375 362.011719 1015.855469 359.414062 C 1020.675781 352.308594 1020.507812 344.78125 1016.625 337.558594 C 1012.933594 330.695312 1006.320312 327.925781 998.402344 327.503906 C 992.71875 327.203125 988.089844 329.1875 983.855469 332.527344 C 981.515625 334.367188 979.203125 336.238281 976.554688 337.679688 C 970.667969 340.875 964.992188 340.527344 959.527344 336.773438 C 957.625 335.457031 955.664062 334.15625 954.167969 332.4375 Z M 954.167969 332.4375 " fill-opacity="1" fill-rule="nonzero"/><g clip-path="url(#4f3215d5c3)"><g transform="matrix(1, 0, 0, 1, 440, 403)"><g clip-path="url(#759730ba32)"><g clip-path="url(#db2cc727e0)"><path fill="#f53d01" d="M 0.675781 0.5 L 554.839844 0.5 L 554.839844 81.429688 L 0.675781 81.429688 Z M 0.675781 0.5 " fill-opacity="1" fill-rule="nonzero"/></g></g></g></g></svg>