<svg xmlns="http://www.w3.org/2000/svg" xmlns:xlink="http://www.w3.org/1999/xlink" width="500" zoomAndPan="magnify" viewBox="0 0 375 374.999991" height="500" preserveAspectRatio="xMidYMid meet" version="1.0"><defs><clipPath id="40b63bccc3"><path d="M 3.40625 4.902344 L 372 4.902344 L 372 370.097656 L 3.40625 370.097656 Z M 3.40625 4.902344 " clip-rule="nonzero"/></clipPath><clipPath id="941015011b"><path d="M 187.5 4.902344 C 85.828125 4.902344 3.40625 86.652344 3.40625 187.5 C 3.40625 288.347656 85.828125 370.097656 187.5 370.097656 C 289.171875 370.097656 371.59375 288.347656 371.59375 187.5 C 371.59375 86.652344 289.171875 4.902344 187.5 4.902344 Z M 187.5 4.902344 " clip-rule="nonzero"/></clipPath><clipPath id="767dff4470"><path d="M 0.40625 0.902344 L 368.761719 0.902344 L 368.761719 366.097656 L 0.40625 366.097656 Z M 0.40625 0.902344 " clip-rule="nonzero"/></clipPath><clipPath id="a7578d1f8d"><path d="M 184.5 0.902344 C 82.828125 0.902344 0.40625 82.652344 0.40625 183.5 C 0.40625 284.347656 82.828125 366.097656 184.5 366.097656 C 286.171875 366.097656 368.59375 284.347656 368.59375 183.5 C 368.59375 82.652344 286.171875 0.902344 184.5 0.902344 Z M 184.5 0.902344 " clip-rule="nonzero"/></clipPath><clipPath id="185edf4837"><rect x="0" width="369" y="0" height="367"/></clipPath></defs><g clip-path="url(#40b63bccc3)"><g clip-path="url(#941015011b)"><g transform="matrix(1, 0, 0, 1, 3, 4)"><g clip-path="url(#185edf4837)"><g clip-path="url(#767dff4470)"><g clip-path="url(#a7578d1f8d)"><path fill="#000000" d="M 0.40625 0.902344 L 368.453125 0.902344 L 368.453125 366.097656 L 0.40625 366.097656 Z M 0.40625 0.902344 " fill-opacity="1" fill-rule="nonzero"/></g></g></g></g></g></g></svg>